<svg id="Capa_1" enable-background="new 0 0 512 512" height="512" viewBox="0 0 512 512" width="512" xmlns="http://www.w3.org/2000/svg"><g><g><path d="m353.091 74.75h-132.766c-5.523 0-10-4.477-10-10s4.477-10 10-10h132.766c5.523 0 10 4.477 10 10s-4.477 10-10 10z"/><path d="m378.47 373.471h-185.554c-5.523 0-10-4.477-10-10v-45.047c0-5.523 4.477-10 10-10h185.554c5.523 0 10 4.477 10 10v45.047c0 5.523-4.477 10-10 10zm-175.554-20h165.554v-25.047h-165.554z"/><path d="m449.204 318.589c-.009-5.518-4.484-9.983-10-9.983h-.017c-5.522.009-9.993 4.494-9.983 10.017l.157 95.519h-287.353v-394.142h267.687c10.853 0 19.682 8.829 19.682 19.671l-.174 188.513c-.005 5.523 4.468 10.004 9.991 10.009h.009c5.519 0 9.995-4.471 10-9.991l.174-188.522c0-21.88-17.801-39.68-39.682-39.68h-307.39c-21.881 0-39.682 17.8-39.682 39.68v414.141c0 21.879 17.801 39.68 39.682 39.68h226.644v8.499c0 3.499 1.829 6.743 4.822 8.555 2.993 1.811 6.716 1.927 9.816.305l23.947-12.535 23.947 12.535c1.456.762 3.048 1.14 4.637 1.14 1.797 0 3.59-.484 5.179-1.445 2.993-1.812 4.822-5.056 4.822-8.555v-8.499h33.259c5.523 0 10-4.477 10-10zm-346.899-298.589h19.704v394.141h-19.704c-7.157 0-13.878 1.905-19.682 5.234v-379.695c0-10.851 8.829-19.68 19.682-19.68zm0 453.501c-10.853 0-19.682-8.829-19.682-19.68s8.83-19.68 19.682-19.68h226.644v39.36zm283.813 11.978-13.947-7.301c-1.453-.76-3.045-1.14-4.638-1.14s-3.185.38-4.638 1.14l-13.947 7.301v-51.337h37.169v51.337zm43.259-11.978h-23.259v-39.36h23.259z"/><path d="m388.47 174.231c0-23.787-19.35-43.14-43.135-43.14-2.776 0-5.509.259-8.186.774-9.73-19.137-29.339-31.427-51.457-31.427s-41.727 12.289-51.457 31.426c-2.676-.515-5.41-.773-8.186-.773-23.785 0-43.135 19.353-43.135 43.14 0 20.409 14.244 37.553 33.313 42.011v53.989c0 5.523 4.477 10 10 10h118.93c5.523 0 10-4.477 10-10v-53.989c19.069-4.458 33.313-21.602 33.313-42.011zm-152.242 86v-44.082c6.693-1.63 12.91-4.846 18.114-9.366 9.278 6.005 20.117 9.236 31.351 9.236s22.073-3.231 31.351-9.236c5.203 4.52 11.421 7.735 18.114 9.365v44.082h-98.93zm109.107-62.86c-7.527 0-14.608-3.688-18.944-9.866-1.66-2.365-4.263-3.897-7.137-4.2-.35-.037-.701-.055-1.049-.055-2.512 0-4.947.947-6.806 2.674-7.006 6.51-16.136 10.095-25.707 10.095s-18.7-3.585-25.707-10.096c-2.117-1.967-4.978-2.924-7.856-2.619-2.874.303-5.476 1.835-7.136 4.2-4.335 6.178-11.417 9.866-18.943 9.866-12.756 0-23.135-10.38-23.135-23.14s10.378-23.14 23.135-23.14c3.404 0 6.681.722 9.739 2.146 2.621 1.22 5.643 1.246 8.285.072 2.642-1.175 4.646-3.436 5.496-6.2 4.901-15.953 19.418-26.67 36.123-26.67 16.707 0 31.224 10.719 36.124 26.673.849 2.765 2.854 5.027 5.497 6.202s5.666 1.148 8.287-.074c3.059-1.426 6.334-2.148 9.735-2.148 12.756 0 23.135 10.38 23.135 23.14s-10.379 23.14-23.136 23.14z"/><g><path d="m439.2 283.58c-4.18 0-7.994-2.694-9.405-6.626-1.388-3.868-.206-8.337 2.936-10.996 3.281-2.776 8.094-3.123 11.746-.864 3.505 2.169 5.338 6.403 4.533 10.446-.92 4.619-5.106 8.04-9.81 8.04z"/></g></g></g></svg>